HIERARCHY
ROOT Hips
{
	OFFSET 0.00000 0.00000 0.00000
	CHANNELS 6 Xposition Yposition Zposition Zrotation Yrotation Xrotation 
	JOINT LHipJoint
	{
		OFFSET 0 0 0
		CHANNELS 3 Zrotation Yrotation Xrotation
		JOINT LeftHip
		{
			OFFSET 1.86795 -1.59681 0.65681
			CHANNELS 3 Zrotation Yrotation Xrotation
			JOINT LeftKnee
			{
				OFFSET 2.30491 -6.33268 0.00000
				CHANNELS 3 Zrotation Yrotation Xrotation
				JOINT LeftAnkle
				{
					OFFSET 2.46780 -6.78022 0.00000
					CHANNELS 3 Zrotation Yrotation Xrotation
					JOINT LeftToe
					{
						OFFSET 0.07897 -0.21698 1.59652
						CHANNELS 3 Zrotation Yrotation Xrotation
						End Site
						{
							OFFSET 0.00000 -0.00000 0.82310
						}
					}
				}
			}
		}
	}
	JOINT RHipJoint
	{
		OFFSET 0 0 0
		CHANNELS 3 Zrotation Yrotation Xrotation
		JOINT RightHip
		{
			OFFSET -1.93650 -1.59681 0.65681
			CHANNELS 3 Zrotation Yrotation Xrotation
			JOINT RightKnee
			{
				OFFSET -2.29410 -6.30299 0.00000
				CHANNELS 3 Zrotation Yrotation Xrotation
				JOINT RightAnkle
				{
					OFFSET -2.48738 -6.83403 0.00000
					CHANNELS 3 Zrotation Yrotation Xrotation
					JOINT RightToe
					{
						OFFSET -0.08699 -0.23899 1.89395
						CHANNELS 3 Zrotation Yrotation Xrotation
						End Site
						{
							OFFSET -0.00000 -0.00000 0.96904
						}
					}
				}
			}
		}
	}
	JOINT lowerback
	{
		OFFSET 0 0 0
		CHANNELS 3 Zrotation Yrotation Xrotation
		JOINT Chest
		{
			OFFSET 0.03629 1.99740 -0.07548
			CHANNELS 3 Zrotation Yrotation Xrotation
			JOINT Chest2
			{
				OFFSET 0.03970 1.94298 0.17218
				CHANNELS 3 Zrotation Yrotation Xrotation
				JOINT lowerneck
				{
					OFFSET 0 0 0
					CHANNELS 3 Zrotation Yrotation Xrotation
					JOINT Neck
					{
						OFFSET -0.05054 1.79469 0.04241
						CHANNELS 3 Zrotation Yrotation Xrotation
						JOINT Head
						{
							OFFSET 0.05195 1.78475 -0.22133
							CHANNELS 3 Zrotation Yrotation Xrotation
							End Site
							{
								OFFSET 0.02420 1.80711 -0.07950
							}
						}
					}
				}
				JOINT LeftCollar
				{
					OFFSET 0 0 0
					CHANNELS 3 Zrotation Yrotation Xrotation
					JOINT LeftShoulder
					{
						OFFSET 2.92134 1.19850 0.36056
CHANNELS 3 Zrotation Xrotation Yrotation
						JOINT LeftElbow
						{
OFFSET 0 -4.841370 0.000000
CHANNELS 3 Zrotation Xrotation Yrotation
							JOINT LeftWrist
							{
OFFSET 0 -3.245200 -0.000000
CHANNELS 3 Zrotation Xrotation Yrotation
								JOINT lhand
								{
									OFFSET 0 0 0
CHANNELS 3 Zrotation Xrotation Yrotation
									JOINT LFingers
									{
OFFSET 0 -0.521220 0.000000
CHANNELS 3 Zrotation Xrotation Yrotation
										End Site
										{
OFFSET 0 -0.420220 0.000000
										}
									}
								}
								JOINT LThumb
								{
OFFSET 0 0.000000 0.000000
CHANNELS 3 Zrotation Xrotation Yrotation
									End Site
									{
OFFSET 0 -0.426640 0.426640
									}
								}
							}
						}
					}
				}
				JOINT RightCollar
				{
					OFFSET 0 0 0
					CHANNELS 3 Zrotation Yrotation Xrotation
					JOINT RightShoulder
					{
						OFFSET -2.84327 1.20795 0.50191
CHANNELS 3 Zrotation Xrotation Yrotation
						JOINT RightElbow
						{
OFFSET 0 -4.722840 0.000000
CHANNELS 3 Zrotation Xrotation Yrotation
							JOINT RightWrist
							{
OFFSET 0 -3.234590 0.000000
CHANNELS 3 Zrotation Xrotation Yrotation
								JOINT rhand
								{
									OFFSET 0 0 0
CHANNELS 3 Zrotation Xrotation Yrotation
									JOINT RFingers
									{
OFFSET 0 -0.307420 0.000000
CHANNELS 3 Zrotation Xrotation Yrotation
										End Site
										{
OFFSET 0 -0.247850 0.000000
										}
									}
								}
								JOINT RThumb
								{
OFFSET 0 0.000000 0.000000
CHANNELS 3 Zrotation Xrotation Yrotation
									End Site
									{
OFFSET 0 -0.251630 0.251630
									}
								}
							}
						}
					}
				}
			}
		}
	}
}
MOTION
Frames: 12
Frame Time: 0.008333333333333333
14.463800 16.207600 -22.533600 1.473900 -2.933500 7.977500 0.000000 0.000000 0.000000 -13.036600 -25.173100 -9.851200 0.713000 5.396200 15.042200 -1.298400 24.003100 -23.904900 0.040900 1.305200 3.588900 0.000000 0.000000 0.000000 13.551400 2.267300 -25.529600 -5.791100 -14.222800 44.137300 0.536800 -15.301900 -14.550000 -0.138500 -2.398900 6.609300 -3.230000 -0.252300 -0.086000 0.198600 -0.438700 -5.889400 2.037500 -0.047400 -6.039600 -6.924000 -0.886500 -6.216900 10.395200 -2.479600 21.917200 4.443000 -0.808700 7.940800 -0.000000 -0.000000 0.000000 7.918200 2.273300 -4.517100 6.750500 -11.507900 0.681000 6.048600 64.334700 -38.212500 0.000000 0.000000 0.000000 -7.125000 0.000000 0.000000 -36.488000 64.735000 18.565900 -0.000000 -0.000000 0.000000 -10.763400 4.041000 36.851900 -7.623800 -12.941300 -0.865900 -29.663800 -8.283500 -26.145000 0.000000 0.000000 0.000000 7.125000 0.000000 -0.000000 0.128600 0.517600 0.127500
14.484041 16.302167 -22.315242 1.188060 -4.284677 8.180279 0.000000 0.000000 0.000000 -13.497170 -26.401012 -5.238583 0.336859 3.729056 10.315652 -1.374883 25.919421 -27.283881 0.547215 4.739195 13.166169 0.000000 0.000000 0.000000 10.240190 7.455774 -22.665509 -3.840249 -11.942846 35.532681 0.610938 -19.993337 -22.955663 -1.860486 -8.569183 24.456686 -2.415895 0.013275 -0.133780 0.011118 -0.069637 -6.162554 1.367540 0.093553 -6.319758 -7.034417 -0.521744 -6.153689 10.410549 -1.908226 21.236068 4.494353 -0.551570 7.648080 0.000000 0.000000 0.000000 10.149896 1.701214 -7.450048 6.661976 -11.361568 0.663421 5.742795 62.679915 -38.567445 0.000000 0.000000 0.000000 -7.125000 0.000000 0.000000 -37.281348 64.926717 19.185752 0.000000 0.000000 0.000000 -11.359844 4.029562 41.076223 -8.111652 -13.733660 -0.978475 -30.626003 -10.271001 -25.689282 0.000000 0.000000 0.000000 7.125000 0.000000 0.000000 -0.520903 0.775132 -0.513871
14.348140 16.330185 -22.077917 1.454450 -4.446238 8.612866 0.000000 0.000000 0.000000 -13.846379 -28.891332 -0.755011 0.105190 2.086202 5.744201 -1.674557 28.638105 -30.496232 1.093681 6.644176 18.666075 0.000000 0.000000 0.000000 5.760889 20.576027 -14.746168 -1.614320 -8.007849 22.740169 -0.690898 -25.763190 -39.623209 -3.951213 -12.081137 36.038829 -2.612106 0.159062 -1.030627 -0.133070 0.133367 -6.504262 1.317349 0.201578 -6.178340 -6.860448 -0.579477 -6.151330 9.817240 -1.875806 21.052111 4.259838 -0.574588 7.582105 0.000000 0.000000 0.000000 12.112805 0.609506 -6.304752 5.876942 -10.056760 0.517534 9.189779 69.025228 -35.266157 0.000000 0.000000 0.000000 -7.125000 0.000000 0.000000 -29.636394 63.171899 13.677681 0.000000 0.000000 0.000000 -12.344689 4.057776 45.862288 -8.038161 -13.614642 -0.961073 -31.857274 -12.840809 -26.561091 0.000000 0.000000 0.000000 7.125000 0.000000 0.000000 -1.096203 -0.495458 -1.106096
14.083130 16.289948 -21.834888 2.320560 -3.617415 9.242121 0.000000 0.000000 0.000000 -14.110030 -33.143182 1.233659 0.090271 1.936277 5.329555 -1.580910 30.539239 -34.778111 1.688165 8.183923 23.274028 0.000000 0.000000 0.000000 1.984223 41.153091 -5.147217 -0.756456 -5.553939 15.495622 -9.712198 -17.253718 -64.679124 -7.973651 -16.099770 52.467546 -2.615755 0.072345 -2.175541 -0.631074 0.014296 -7.288875 0.805067 0.134959 -6.354312 -7.623014 -0.552741 -5.743585 9.881134 -1.745056 20.762531 4.414613 -0.575688 7.405808 0.000000 0.000000 0.000000 15.015756 0.376739 -9.725527 6.083324 -10.401031 0.554174 2.800828 71.920893 -31.368145 0.000000 0.000000 0.000000 -7.125000 0.000000 0.000000 -32.199362 58.338473 11.256429 0.000000 0.000000 0.000000 -13.664727 4.673779 53.819583 -8.203124 -13.881581 -1.000306 -29.822824 -12.226851 -25.230577 0.000000 0.000000 0.000000 7.125000 0.000000 0.000000 -0.116440 1.471383 -0.113347
13.687700 16.169226 -21.619847 4.534008 -4.463178 8.888988 0.000000 0.000000 0.000000 -16.285793 -34.961242 6.039945 0.015386 0.555374 1.526929 -2.586416 34.480120 -36.760759 1.297412 7.208882 20.339018 0.000000 0.000000 0.000000 0.464871 42.217420 -4.881582 -0.742293 -5.503199 15.349656 -7.740542 -22.503009 -61.465368 -6.338373 -14.735221 46.300767 -3.423862 0.926548 -2.095306 -2.162874 1.040831 -7.895496 -0.392290 0.650998 -7.084969 -7.457245 -0.895782 -5.694955 9.129600 -2.038430 19.913980 4.088808 -0.769105 7.148033 0.000000 0.000000 0.000000 20.053640 0.773986 -22.238407 6.735242 -11.482735 0.677957 1.730319 65.146893 -26.375652 0.000000 0.000000 0.000000 -7.125000 0.000000 0.000000 -29.313742 53.849331 6.833837 0.000000 0.000000 0.000000 -14.499504 4.352463 63.894916 -8.003464 -13.558247 -0.953183 -31.506812 -10.573014 -23.649503 0.000000 0.000000 0.000000 7.125000 0.000000 0.000000 -1.391908 2.800062 -1.322281
13.215505 16.116315 -21.432827 5.620757 -5.497956 7.706501 0.000000 0.000000 0.000000 -17.849783 -36.517647 10.742729 0.000000 0.000000 0.000000 -3.410629 37.659609 -39.276594 1.045059 6.488094 18.211844 0.000000 0.000000 0.000000 0.949627 40.124705 -5.996599 -0.971735 -6.275708 17.586499 -4.293959 -23.554842 -51.691121 -5.656043 -14.079901 43.572331 -2.636496 1.513888 -1.213887 -3.151433 1.739717 -8.143481 -1.935809 0.909640 -7.823765 -7.870480 -0.719031 -6.051754 8.375613 -1.541948 19.518800 3.938682 -0.614481 7.042852 0.000000 0.000000 0.000000 23.843692 0.906184 -21.291957 6.674869 -11.382916 0.665990 1.318884 63.570256 -25.552122 0.000000 0.000000 0.000000 -7.125000 0.000000 0.000000 -29.143418 53.059139 6.197757 0.000000 0.000000 0.000000 -13.930380 2.262063 62.600131 -7.108852 -12.098170 -0.754352 -30.483252 -5.808545 -23.148378 0.000000 0.000000 0.000000 7.125000 0.000000 0.000000 -0.847431 3.595600 -0.793041
12.794538 16.151879 -21.266155 3.789166 -4.267269 7.801857 0.000000 0.000000 0.000000 -15.371711 -40.709309 13.162411 0.000000 0.000000 0.000000 -5.969339 42.776802 -39.465936 0.400866 4.051069 11.222211 0.000000 0.000000 0.000000 4.553782 32.722441 -7.736560 -0.942700 -6.183909 17.318972 -1.193260 -26.733672 -43.027320 -4.691693 -13.019962 39.456541 -0.313895 0.965201 -1.198767 -2.169255 1.133496 -8.564254 -2.175853 0.486044 -8.261554 -7.689931 -0.250530 -6.442584 7.358921 -0.668864 18.895369 3.626142 -0.255209 6.839187 0.000000 0.000000 0.000000 25.694879 2.563532 -22.005352 6.692459 -11.411962 0.669483 -0.596022 62.389233 -25.629002 0.000000 0.000000 0.000000 -7.125000 0.000000 0.000000 -30.964813 52.790747 6.431809 0.000000 0.000000 0.000000 -15.972177 0.010459 60.615870 -7.426188 -12.618427 -0.822298 -28.109225 -5.458021 -21.934122 0.000000 0.000000 0.000000 7.125000 0.000000 0.000000 0.445250 5.442080 0.401549
12.452716 16.230323 -21.130579 2.755017 -1.899600 8.143997 0.000000 0.000000 0.000000 -10.716223 -47.646241 9.972859 0.110639 2.142808 5.900662 -7.871088 45.412197 -37.985162 0.027864 -1.072724 -2.948979 0.000000 0.000000 0.000000 7.675860 31.116906 -6.836975 -0.893379 -6.023700 16.853415 -1.001378 -28.375362 -44.066944 -4.449396 -12.734257 38.383742 -1.104169 -0.174248 -1.579479 -0.910429 -0.338773 -8.853121 -0.322040 -0.129242 -8.391282 -7.042590 -0.503367 -6.482438 8.275062 -1.208912 17.476917 3.747993 -0.398882 6.433276 0.000000 0.000000 0.000000 27.121392 3.112527 -22.514237 6.664632 -11.365973 0.663956 -1.584775 62.568411 -26.455556 0.000000 0.000000 0.000000 -7.125000 0.000000 0.000000 -32.444137 53.320927 7.240812 0.000000 0.000000 0.000000 -19.308252 -1.887290 59.300543 -8.153977 -13.802142 -0.988542 -32.105376 -10.474141 -20.686830 0.000000 0.000000 0.000000 7.125000 0.000000 0.000000 -2.231527 5.968635 -1.988929
12.280897 16.239939 -20.983963 0.743192 -0.187816 7.953323 0.000000 0.000000 0.000000 -8.219958 -52.474062 12.038400 0.103521 2.074067 5.710336 -6.217583 45.961749 -47.043171 0.015680 0.806790 2.217434 0.000000 0.000000 0.000000 12.169263 35.490475 -1.448981 -0.661323 -5.201060 14.482861 -5.965234 -20.465850 -55.128327 -7.192748 -15.491993 49.599449 -0.477683 -0.662259 -2.050948 0.192693 -0.893905 -8.788367 0.513552 -0.401814 -8.032203 -7.100858 -1.448556 -6.844611 9.149745 -2.579869 16.444845 3.922979 -0.998294 6.293901 0.000000 0.000000 0.000000 29.464664 0.301234 -24.129596 6.796862 -11.584431 0.690264 -0.753579 61.180420 -24.960578 0.000000 0.000000 0.000000 -7.125000 0.000000 0.000000 -30.666450 52.188885 5.881653 0.000000 0.000000 0.000000 -22.406965 -2.207543 58.253248 -9.106310 -15.329631 -1.228047 -26.490500 -11.717226 -20.195593 0.000000 0.000000 0.000000 7.125000 0.000000 0.000000 1.252152 7.641778 1.074664
12.301571 16.193634 -20.833744 0.131786 0.223284 8.329027 0.000000 0.000000 0.000000 -11.229917 -55.012918 19.327014 0.000000 0.000000 0.000000 -2.774333 44.467739 -54.223446 0.575184 4.854906 13.495472 0.000000 0.000000 0.000000 14.535874 42.202930 2.164674 -0.743797 -5.509115 15.366586 -10.417534 -12.296354 -65.130844 -8.765010 -16.653843 55.273477 -0.500172 -0.432153 -3.087468 0.381441 -0.566403 -9.232559 0.701679 -0.228350 -7.919127 -6.987633 -2.433709 -6.470979 9.403060 -3.931462 15.161004 3.865943 -1.650064 5.947572 0.000000 0.000000 0.000000 32.588857 -3.825368 -26.365376 7.224522 -12.288173 0.778692 -1.572694 58.376538 -24.212861 0.000000 0.000000 0.000000 -7.125000 0.000000 0.000000 -30.931259 51.408671 5.312302 0.000000 0.000000 0.000000 -24.800720 -1.863947 61.761968 -8.725111 -14.721202 -1.129352 -28.582623 -12.598499 -20.632995 0.000000 0.000000 0.000000 7.125000 0.000000 0.000000 -0.022744 6.769926 -0.020659
12.440336 16.122018 -20.695517 -0.418285 1.172558 8.330794 0.000000 0.000000 0.000000 -15.159628 -58.918518 24.749135 0.000000 0.000000 0.000000 4.823347 38.976125 -64.864453 2.113266 9.088767 26.080018 0.000000 0.000000 0.000000 18.405856 49.236538 8.553784 -0.749149 -5.528354 15.421959 -14.510295 -2.848111 -74.984444 -9.991613 -17.404915 59.460045 -1.124679 -0.796004 -3.543729 1.115052 -1.013858 -9.854312 1.840549 -0.363354 -8.314069 -7.077904 -2.807489 -6.551926 9.165166 -4.379886 14.938059 3.766247 -1.890510 5.929762 0.000000 0.000000 0.000000 32.463715 -7.044738 -16.969414 6.946788 -11.831630 0.720699 -2.129556 65.296102 -23.775664 0.000000 0.000000 0.000000 -7.125000 0.000000 0.000000 -31.158683 50.942351 4.977150 0.000000 0.000000 0.000000 -26.644615 -0.962294 63.107818 -7.793094 -13.216849 -0.904252 -29.624612 -8.681364 -22.090268 0.000000 0.000000 0.000000 7.125000 0.000000 0.000000 -0.476370 4.953003 -0.433478
12.668035 16.068403 -20.555114 -0.702882 0.914805 10.029236 0.000000 0.000000 0.000000 -18.287249 -63.120591 25.154697 0.114278 2.165537 5.963789 13.784529 18.223829 -75.472195 7.304618 15.578858 50.009736 0.000000 0.000000 0.000000 17.221457 51.771467 7.939963 -0.784223 -5.653462 15.782219 -15.336236 0.118706 -77.038734 -10.198608 -17.519949 60.149991 -0.659333 -0.857323 -5.370522 1.497988 -1.055293 -11.187764 1.977877 -0.391245 -8.742857 -7.004729 -2.778393 -6.539329 7.961555 -4.134255 14.471760 3.381177 -1.854500 5.738781 0.000000 0.000000 0.000000 28.412166 -5.461736 -5.091951 7.069164 -12.033039 0.746052 -1.776305 71.808260 -23.551396 0.000000 0.000000 0.000000 -7.125000 0.000000 0.000000 -30.702103 50.806232 4.780772 0.000000 0.000000 0.000000 -26.349476 4.268038 61.220034 -9.570571 -16.064849 -1.353870 -27.665460 -13.003682 -20.102936 0.000000 0.000000 0.000000 7.125000 0.000000 0.000000 0.492879 7.526866 0.423373
